# xmcd
#
# Track frame offsets:
#	150
#	20265
#	33822
#	48495
#	62589
#	71762
#	86863
#	101217
#	118551
#	131555
#	147928
#
# Disc length: 2158 seconds
#
# Revision: 2
# Processed by: cddbd v1.5.1PL2 Copyright (c) Steve Scherf et al.
# Submitted via: EZCDDA 4.3.2
#
DISCID=99086c0b
DTITLE=Seppo Närhi - Voittamaton
DYEAR=1900
DGENRE=
TTITLE0=Sininen saari
TTITLE1=Joku kaunis päivä
TTITLE2=Tee mulle taivas
TTITLE3=Laulu vain jää
TTITLE4=Voittamaton
TTITLE5=Jätkät pärjää aina
TTITLE6=Sun luokses ikävöin
TTITLE7=Toiveet
TTITLE8=Mä en tekisi noin
TTITLE9=Runonkylväjä
TTITLE10=Rauha
EXTD=
EXTT0=
EXTT1=
EXTT2=
EXTT3=
EXTT4=
EXTT5=
EXTT6=
EXTT7=
EXTT8=
EXTT9=
EXTT10=
PLAYORDER=
